<?xml version="1.0" standalone="no"?>
<!DOCTYPE svg PUBLIC "-//W3C//DTD SVG 20010904//EN"
 "http://www.w3.org/TR/2001/REC-SVG-20010904/DTD/svg10.dtd">
<svg version="1.0" xmlns="http://www.w3.org/2000/svg"
 width="1200.000000pt" height="1200.000000pt" viewBox="0 0 1200.000000 1200.000000"
 preserveAspectRatio="xMidYMid meet">
<metadata>
Created by potrace 1.11, written by Peter Selinger 2001-2013
</metadata>
<g transform="translate(0.000000,1200.000000) scale(0.100000,-0.100000)"
fill="#000000" stroke="none">
<path d="M0 6000 l0 -6000 6000 0 6000 0 0 6000 0 6000 -6000 0 -6000 0 0
-6000z m6323 4485 c307 -25 611 -78 894 -157 62 -17 111 -33 109 -35 -2 -2
-45 3 -97 11 -236 38 -407 49 -684 43 -155 -3 -323 -12 -395 -21 -503 -65
-928 -198 -1375 -430 -183 -95 -495 -298 -605 -395 l-35 -30 104 39 c58 22
106 39 106 37 1 -1 7 -16 12 -33 l11 -31 -162 -58 c-88 -32 -180 -67 -204 -77
-41 -17 -222 -181 -264 -240 l-19 -28 93 34 c51 19 205 75 341 125 137 50 255
91 262 91 15 0 30 -49 18 -60 -4 -4 -192 -74 -416 -155 l-408 -148 -89 -111
c-49 -61 -87 -112 -86 -114 2 -1 241 84 532 191 l529 193 13 -29 c7 -16 11
-32 8 -35 -3 -2 -265 -100 -583 -216 l-577 -211 -41 -58 c-22 -32 -53 -80 -68
-108 l-28 -49 28 11 c87 34 1318 479 1324 479 10 0 29 -59 21 -63 -4 -2 -328
-121 -720 -263 l-712 -259 -51 -98 c-28 -54 -49 -100 -47 -101 1 -1 360 128
796 287 435 160 794 288 797 285 3 -2 7 -18 11 -34 l5 -29 -823 -299 c-453
-164 -828 -304 -834 -310 -6 -6 -27 -51 -47 -99 -35 -85 -36 -88 -14 -81 12 4
416 150 897 325 481 176 877 316 881 311 4 -4 10 -18 14 -32 6 -25 1 -27 -357
-157 -200 -72 -618 -225 -929 -338 l-565 -207 -28 -85 c-15 -46 -25 -87 -22
-90 4 -4 1834 656 1956 705 7 3 33 -58 28 -63 -2 -2 -451 -165 -998 -364 -547
-198 -1002 -365 -1010 -369 -14 -8 -64 -171 -56 -180 3 -2 1958 706 2112 765
6 2 15 -11 21 -30 l10 -33 -86 -31 c-482 -173 -2067 -755 -2073 -761 -8 -8
-42 -162 -36 -167 2 -2 507 179 1122 403 1074 390 1119 405 1133 387 7 -11 12
-26 11 -33 -2 -9 -446 -175 -1128 -423 -619 -224 -1132 -412 -1140 -417 -15
-9 -43 -172 -30 -172 3 0 535 193 1181 428 l1176 428 11 -30 c7 -17 8 -33 4
-37 -4 -4 -538 -199 -1187 -434 -649 -235 -1186 -435 -1192 -443 -8 -9 -13
-45 -13 -85 0 -61 2 -69 18 -65 19 6 1682 611 4681 1703 1097 399 1999 724
2006 721 16 -6 141 -155 231 -276 530 -708 846 -1576 892 -2450 9 -160 10
-366 2 -373 -3 -2 -705 -259 -1560 -570 -3657 -1331 -4994 -1818 -5007 -1826
-21 -12 68 -94 277 -258 210 -164 428 -298 695 -430 151 -74 341 -153 368
-153 8 0 880 315 1937 700 1058 385 1928 700 1935 700 13 0 30 -48 20 -58 -7
-7 -955 -353 -2577 -942 -659 -239 -1198 -437 -1198 -440 0 -7 212 -70 235
-70 9 0 470 165 1023 366 2146 781 2567 934 2573 934 11 0 30 -53 22 -60 -4
-4 -476 -177 -1048 -385 -572 -208 -1341 -488 -1710 -622 -368 -135 -683 -250
-699 -256 -28 -9 -28 -11 -9 -18 11 -4 77 -17 146 -29 l125 -21 1622 591 c893
324 1626 590 1630 590 5 0 13 -14 19 -30 8 -23 7 -32 -2 -35 -7 -3 -100 -37
-207 -76 -309 -112 -2832 -1030 -2865 -1042 l-30 -11 35 -8 c19 -4 105 -10
190 -14 l155 -6 385 140 c212 77 794 289 1295 472 l910 332 74 66 c547 490
943 1111 1157 1817 24 77 43 135 43 128 1 -6 -10 -74 -24 -150 -107 -582 -310
-1105 -623 -1603 -584 -928 -1508 -1621 -2562 -1920 -895 -254 -1811 -232
-2690 65 -283 95 -685 285 -927 438 -766 482 -1371 1176 -1728 1982 -129 291
-223 581 -290 890 -364 1698 276 3444 1650 4506 707 547 1581 873 2485 928
140 8 458 6 583 -4z"/>
<path d="M7907 2805 c-593 -216 -1081 -396 -1084 -399 -3 -3 16 -3 43 -1 514
51 579 66 1084 249 405 147 478 179 665 289 155 92 399 258 375 256 -3 0 -490
-177 -1083 -394z"/>
</g>
</svg>
